<?xml version="1.0" encoding="UTF-8" standalone="no"?>
<!-- Generator: Adobe Illustrator 19.0.0, SVG Export Plug-In . SVG Version: 6.00 Build 0)  -->

<svg
   version="1.1"
   id="Layer_1"
   x="0px"
   y="0px"
   viewBox="-217 29 80 80"
   style="enable-background:new -217 29 80 80;"
   xml:space="preserve"
   sodipodi:docname="logo.svg"
   inkscape:version="1.3.2 (091e20e, 2023-11-25, custom)"
   xmlns:inkscape="http://www.inkscape.org/namespaces/inkscape"
   xmlns:sodipodi="http://sodipodi.sourceforge.net/DTD/sodipodi-0.dtd"
   xmlns="http://www.w3.org/2000/svg"
   xmlns:svg="http://www.w3.org/2000/svg"><defs
   id="defs1" /><sodipodi:namedview
   id="namedview1"
   pagecolor="#ffffff"
   bordercolor="#000000"
   borderopacity="0.25"
   inkscape:showpageshadow="2"
   inkscape:pageopacity="0.0"
   inkscape:pagecheckerboard="0"
   inkscape:deskcolor="#d1d1d1"
   inkscape:zoom="5.6568543"
   inkscape:cx="41.18897"
   inkscape:cy="44.636116"
   inkscape:window-width="1920"
   inkscape:window-height="1013"
   inkscape:window-x="-9"
   inkscape:window-y="29"
   inkscape:window-maximized="1"
   inkscape:current-layer="Layer_1" />
<style
   type="text/css"
   id="style1">
	.st0{fill:#FFFFFF;}
</style>

<path
   id="path1"
   style="opacity:1;fill:#ffffff;stroke:none;stroke-width:0.1;stroke-linecap:round;stroke-dasharray:none;stroke-opacity:1"
   d="M -173.52734 35.462891 C -183.70441 35.47481 -193.80274 39.783211 -199.8125 47.1875 C -210.62878 60.51363 -210.62612 82.655506 -194.41602 95.351562 L -194.41602 69.261719 C -194.18433 47.345688 -168.24999 42.125013 -158.0625 55.59375 L -149.17773 47.425781 C -148.88494 47.171665 -148.7374 46.783842 -149.15625 46.289062 C -155.50665 38.787035 -164.54758 35.452373 -173.52734 35.462891 z M -175.38477 54.832031 C -189.25572 56.366335 -188.42773 71.03125 -188.42773 71.03125 L -188.42773 95.804688 C -188.42773 99.638851 -185.10155 100.64754 -183.69141 101.02539 C -180.05914 101.99865 -161.76852 106.46696 -148.75781 90.796875 L -157.60938 81.96875 C -163.4205 88.053532 -167.84109 89.608035 -175.23438 89.402344 C -175.37498 89.398434 -175.38477 89.238281 -175.38477 89.238281 L -175.38477 54.832031 z " /></svg>
