<?xml version="1.0" encoding="UTF-8" standalone="no"?>
<!-- Generator: Adobe Illustrator 19.0.0, SVG Export Plug-In . SVG Version: 6.00 Build 0)  -->

<svg
   version="1.1"
   id="Layer_1"
   x="0px"
   y="0px"
   viewBox="-217 29 400 80"
   xml:space="preserve"
   sodipodi:docname="logo-calluna.svg"
   inkscape:version="1.3.2 (091e20e, 2023-11-25, custom)"
   width="400"
   height="80"
   xmlns:inkscape="http://www.inkscape.org/namespaces/inkscape"
   xmlns:sodipodi="http://sodipodi.sourceforge.net/DTD/sodipodi-0.dtd"
   xmlns="http://www.w3.org/2000/svg"
   xmlns:svg="http://www.w3.org/2000/svg"><defs
   id="defs1" /><sodipodi:namedview
   id="namedview1"
   pagecolor="#ffffff"
   bordercolor="#000000"
   borderopacity="0.25"
   inkscape:showpageshadow="false"
   inkscape:pageopacity="0.0"
   inkscape:pagecheckerboard="0"
   inkscape:deskcolor="#d1d1d1"
   inkscape:zoom="2"
   inkscape:cx="199.5"
   inkscape:cy="56.75"
   inkscape:window-width="1920"
   inkscape:window-height="1013"
   inkscape:window-x="-9"
   inkscape:window-y="29"
   inkscape:window-maximized="1"
   inkscape:current-layer="Layer_1"
   borderlayer="false"
   showborder="false" />
<style
   type="text/css"
   id="style1">
	.st0{fill:#FFFFFF;}
</style>

<path
   id="path1"
   style="opacity:1;fill:#ffffff;stroke:none;stroke-width:0.1;stroke-linecap:round;stroke-dasharray:none;stroke-opacity:1"
   d="M -173.52734 35.462891 C -183.7044 35.474811 -193.80275 39.783218 -199.8125 47.1875 C -210.62877 60.513617 -210.6261 82.655519 -194.41602 95.351562 L -194.41602 69.261719 C -194.18433 47.34571 -168.24998 42.125026 -158.0625 55.59375 L -149.17773 47.425781 C -148.88494 47.171666 -148.73742 46.783842 -149.15625 46.289062 C -155.50664 38.787043 -164.54759 35.452373 -173.52734 35.462891 z M 1.3378906 37.443359 L 1.3378906 100.49609 L 8.9042969 100.49609 L 8.9042969 44.925781 C 8.9042969 38.872567 4.2804253 37.443359 1.3378906 37.443359 z M 18.4375 37.443359 L 18.4375 100.49609 L 26.003906 100.49609 L 26.003906 44.925781 C 26.003906 38.872567 21.380035 37.443359 18.4375 37.443359 z M -74.646484 40.636719 C -113.74016 40.636719 -113.82432 101.50586 -74.5625 101.50586 C -68.172996 101.50586 -52.031162 99.991402 -52.115234 91.416016 C -52.115234 88.977915 -54.13302 86.96129 -57.664062 86.625 C -60.102162 96.965908 -68.593359 100.66406 -74.5625 100.66406 C -102.72676 100.57996 -102.64261 41.058154 -74.646484 41.478516 C -67.920691 41.478516 -60.102162 45.934483 -57.664062 56.275391 C -54.13302 55.939101 -52.199307 53.920522 -52.115234 51.482422 C -52.115234 42.318528 -68.256981 40.636719 -74.646484 40.636719 z M -175.38477 54.832031 C -189.2557 56.366334 -188.42773 71.03125 -188.42773 71.03125 L -188.42773 95.804688 C -188.42773 99.638847 -185.10154 100.64754 -183.69141 101.02539 C -180.05914 101.99865 -161.76851 106.46694 -148.75781 90.796875 L -157.60938 81.96875 C -163.42049 88.053526 -167.84109 89.608035 -175.23438 89.402344 C -175.37497 89.398444 -175.38477 89.238281 -175.38477 89.238281 L -175.38477 54.832031 z M -29.128906 57.535156 C -35.938771 57.535156 -41.824219 60.310316 -41.824219 64.261719 C -41.824219 65.943167 -40.647877 68.128554 -37.453125 68.464844 C -36.696473 62.916064 -31.652208 58.544922 -26.1875 58.544922 C -20.470576 58.544922 -17.107422 62.243028 -17.107422 67.035156 C -17.107422 81.41154 -47.121094 72.41741 -47.121094 89.736328 C -47.121094 98.311716 -38.966116 101.33789 -32.15625 101.33789 C -25.346384 101.33789 -18.95744 98.562996 -14.837891 94.359375 C -14.249384 99.235575 -9.9617136 100.49609 -7.3554688 100.49609 L -7.3554688 75.779297 C -7.3554688 60.057755 -19.292433 57.535156 -29.128906 57.535156 z M 150.44727 57.535156 C 143.6374 57.535156 137.75195 60.310316 137.75195 64.261719 C 137.75195 65.943167 138.9283 68.128554 142.12305 68.464844 C 142.8797 62.916064 147.92396 58.544922 153.38867 58.544922 C 159.1056 58.544922 162.46875 62.243028 162.46875 67.035156 C 162.46875 81.41154 132.45508 72.41741 132.45508 89.736328 C 132.45508 98.311716 140.61006 101.33789 147.41992 101.33789 C 154.22979 101.33789 160.61874 98.562996 164.73828 94.359375 C 165.32679 99.235575 169.61446 100.49609 172.2207 100.49609 L 172.2207 75.779297 C 172.2207 60.057755 160.28374 57.535156 150.44727 57.535156 z M 110.89844 57.619141 C 104.84522 57.619141 99.802598 61.402344 94.337891 61.402344 C 91.395357 61.402344 89.459921 60.814965 84.835938 58.460938 L 84.835938 100.49609 L 92.404297 100.49609 L 92.404297 74.433594 C 92.404297 64.513049 99.802256 59.974609 105.85547 59.974609 C 112.83348 59.974609 117.70898 64.766409 117.70898 73.341797 L 117.70898 100.49609 L 125.27539 100.49609 L 125.27539 73.425781 C 125.27539 64.093743 121.23935 57.619141 110.89844 57.619141 z M 34.78125 58.460938 L 34.78125 85.447266 C 34.78125 94.779304 38.899415 101.25391 49.15625 101.25391 C 59.160868 101.25391 67.736304 95.283693 75.21875 100.41211 L 75.21875 65.943359 C 75.21875 59.890145 70.594878 58.460938 67.652344 58.460938 L 67.652344 84.439453 C 67.652344 93.519274 63.197097 99.740234 54.033203 99.740234 C 47.30741 99.740234 42.347656 94.779217 42.347656 85.53125 L 42.347656 65.943359 C 42.347656 59.890145 37.723785 58.460938 34.78125 58.460938 z M -14.921875 71.912109 L -14.921875 84.859375 C -14.921875 93.266618 -19.546148 99.572266 -27.701172 99.572266 C -33.670314 99.572266 -39.302734 96.377329 -39.302734 88.558594 C -39.302734 73.509632 -21.143234 79.730845 -14.921875 71.912109 z M 164.6543 71.912109 L 164.6543 84.859375 C 164.6543 93.266618 160.03002 99.572266 151.875 99.572266 C 145.90586 99.572266 140.27344 96.377329 140.27344 88.558594 C 140.27344 73.509632 158.43294 79.730845 164.6543 71.912109 z " /></svg>
